<svg width="24" height="24" viewBox="0 0 24 24" fill="none" xmlns="http://www.w3.org/2000/svg">
<path d="M5 11C5 12.8565 5.74859 14.637 7.08108 15.9497C8.41358 17.2625 10.2208 18 12.1053 18C13.9897 18 15.7969 17.2625 17.1294 15.9497C18.4619 14.637 19.2105 12.8565 19.2105 11M12.1053 21V19M12.1053 14C10.4235 14 9.06015 12.6569 9.06015 11V6C9.06015 4.34315 10.4235 3 12.1053 3C13.787 3 15.1504 4.34315 15.1504 6V11C15.1504 12.6569 13.787 14 12.1053 14Z" stroke="white" stroke-width="2" stroke-linecap="round" stroke-linejoin="round"/>
<path d="M3 21L21 3" stroke="white" stroke-width="2" stroke-linecap="round"/>
</svg>
