<svg width="25" height="24" viewBox="0 0 25 24" fill="none" xmlns="http://www.w3.org/2000/svg">
<path d="M15.6884 16.5647C15.6884 16.6341 15.682 16.7015 15.6734 16.7688C15.682 16.712 15.6884 16.6573 15.697 16.6005C15.6777 16.7225 15.6455 16.8404 15.5983 16.9561C15.6198 16.9056 15.6413 16.8551 15.6627 16.8046C15.6262 16.8909 15.5833 16.9729 15.5297 17.0508C15.5168 17.0697 15.5018 17.0887 15.489 17.1076C15.4546 17.1623 15.6026 16.9771 15.5297 17.0571C15.4975 17.0908 15.4675 17.1266 15.4353 17.1581C15.4032 17.1897 15.3667 17.2213 15.3324 17.2507C15.2659 17.3075 15.3967 17.2023 15.3967 17.2023C15.3967 17.2086 15.3474 17.236 15.3388 17.2423C15.2551 17.297 15.1672 17.3412 15.0771 17.3791C15.1286 17.358 15.1801 17.337 15.2315 17.316C15.1136 17.3623 14.9934 17.3938 14.869 17.4128C14.927 17.4043 14.9827 17.398 15.0406 17.3896C14.8905 17.4086 14.7382 17.4043 14.5859 17.4043H5.40513C4.98899 17.4043 4.57071 17.4064 4.15457 17.4043C4.08164 17.4043 4.01085 17.4001 3.94007 17.3896C3.99798 17.398 4.05375 17.4043 4.11167 17.4128C3.98726 17.3938 3.86714 17.3623 3.74916 17.316C3.80064 17.337 3.85212 17.358 3.9036 17.3791C3.81566 17.3433 3.732 17.3012 3.65263 17.2486C3.63333 17.236 3.61402 17.2213 3.59472 17.2086C3.53895 17.175 3.72771 17.3202 3.6462 17.2486C3.61188 17.217 3.57541 17.1876 3.54324 17.156C3.51106 17.1245 3.47888 17.0887 3.44885 17.055C3.39094 16.9898 3.49819 17.1181 3.49819 17.1181C3.49175 17.1181 3.46387 17.0697 3.45743 17.0613C3.40166 16.9793 3.35662 16.893 3.31801 16.8046C3.33946 16.8551 3.36091 16.9056 3.38236 16.9561C3.33517 16.8404 3.30299 16.7225 3.28369 16.6005C3.29227 16.6573 3.2987 16.712 3.30728 16.7688C3.28798 16.6299 3.29227 16.4889 3.29227 16.35V8.21227C3.29227 7.844 3.29012 7.47783 3.29227 7.10956C3.29227 7.03801 3.29656 6.96856 3.30728 6.89912C3.2987 6.95593 3.29227 7.01065 3.28369 7.06747C3.30299 6.94541 3.33517 6.82757 3.38236 6.71182C3.36091 6.76233 3.33946 6.81283 3.31801 6.86334C3.35447 6.77706 3.39737 6.69499 3.451 6.61712C3.46387 6.59818 3.47888 6.57924 3.49175 6.5603C3.52608 6.50559 3.37807 6.69078 3.451 6.61081C3.48317 6.57714 3.51321 6.54137 3.54538 6.5098C3.57756 6.47823 3.61402 6.44667 3.64834 6.4172C3.71484 6.36039 3.58399 6.46561 3.58399 6.46561C3.58399 6.45929 3.63333 6.43194 3.64191 6.42562C3.72556 6.37091 3.81351 6.32672 3.9036 6.28884C3.85212 6.30988 3.80064 6.33092 3.74916 6.35197C3.86714 6.30567 3.98726 6.2741 4.11167 6.25517C4.05375 6.26358 3.99798 6.2699 3.94007 6.27831C4.09022 6.25937 4.24252 6.26358 4.39482 6.26358H13.5756C13.9917 6.26358 14.41 6.26148 14.8261 6.26358C14.8991 6.26358 14.9699 6.26779 15.0406 6.27831C14.9827 6.2699 14.927 6.26358 14.869 6.25517C14.9934 6.2741 15.1136 6.30567 15.2315 6.35197C15.1801 6.33092 15.1286 6.30988 15.0771 6.28884C15.1651 6.32461 15.2487 6.3667 15.3281 6.41931C15.3474 6.43194 15.3667 6.44667 15.386 6.45929C15.4418 6.49296 15.253 6.34776 15.3345 6.41931C15.3688 6.45088 15.4053 6.48034 15.4375 6.5119C15.4696 6.54347 15.5018 6.57924 15.5319 6.61292C15.5898 6.67815 15.4825 6.54978 15.4825 6.54978C15.489 6.54978 15.5168 6.59818 15.5233 6.6066C15.579 6.68867 15.6241 6.77496 15.6627 6.86334C15.6413 6.81283 15.6198 6.76233 15.5983 6.71182C15.6455 6.82757 15.6777 6.94541 15.697 7.06747C15.6884 7.01065 15.682 6.95593 15.6734 6.89912C15.6906 7.03801 15.6884 7.17479 15.6884 7.31368V15.3736C15.6884 15.7629 15.6799 16.1543 15.6884 16.5436V16.5647C15.6884 16.8951 15.9845 17.2107 16.332 17.196C16.6816 17.1813 16.9755 16.9182 16.9755 16.5647V7.25476C16.9755 6.8423 16.909 6.44456 16.7009 6.07629C16.3255 5.40919 15.5833 5.00514 14.8111 5.00094C14.3285 4.99883 13.8459 5.00094 13.3632 5.00094H4.18889C3.54967 5.00094 2.91259 5.25767 2.50718 5.75221C2.18757 6.14153 2.00524 6.60239 2.00095 7.10535V16.1228C2.00095 16.268 1.99881 16.4132 2.00095 16.5563C2.0031 16.9266 2.09963 17.2949 2.28839 17.6169C2.54579 18.0546 2.95335 18.364 3.42955 18.5449C3.71698 18.6544 4.02372 18.667 4.32832 18.667H14.5966C14.8476 18.667 15.0878 18.6628 15.3367 18.606C16.2912 18.3913 16.9626 17.5096 16.9712 16.5626C16.9755 16.2322 16.673 15.9165 16.3277 15.9313C15.9802 15.9481 15.6906 16.2111 15.6884 16.5647Z" fill="white"/>
<path d="M15.6884 16.5647C15.6884 16.6341 15.682 16.7015 15.6734 16.7688C15.682 16.712 15.6884 16.6573 15.697 16.6005C15.6777 16.7225 15.6455 16.8404 15.5983 16.9561C15.6198 16.9056 15.6413 16.8551 15.6627 16.8046C15.6262 16.8909 15.5833 16.9729 15.5297 17.0508C15.5168 17.0697 15.5018 17.0887 15.489 17.1076C15.4546 17.1623 15.6026 16.9771 15.5297 17.0571C15.4975 17.0908 15.4675 17.1266 15.4353 17.1581C15.4032 17.1897 15.3667 17.2213 15.3324 17.2507C15.2659 17.3075 15.3967 17.2023 15.3967 17.2023C15.3967 17.2086 15.3474 17.236 15.3388 17.2423C15.2551 17.297 15.1672 17.3412 15.0771 17.3791C15.1286 17.358 15.1801 17.337 15.2315 17.316C15.1136 17.3623 14.9934 17.3938 14.869 17.4128C14.927 17.4043 14.9827 17.398 15.0406 17.3896C14.8905 17.4086 14.7382 17.4043 14.5859 17.4043H5.40513C4.98899 17.4043 4.57071 17.4064 4.15457 17.4043C4.08164 17.4043 4.01085 17.4001 3.94007 17.3896C3.99798 17.398 4.05375 17.4043 4.11167 17.4128C3.98726 17.3938 3.86714 17.3623 3.74916 17.316C3.80064 17.337 3.85212 17.358 3.9036 17.3791C3.81566 17.3433 3.732 17.3012 3.65263 17.2486C3.63333 17.236 3.61402 17.2213 3.59472 17.2086C3.53895 17.175 3.72771 17.3202 3.6462 17.2486C3.61188 17.217 3.57541 17.1876 3.54324 17.156C3.51106 17.1245 3.47888 17.0887 3.44885 17.055C3.39094 16.9898 3.49819 17.1181 3.49819 17.1181C3.49175 17.1181 3.46387 17.0697 3.45743 17.0613C3.40166 16.9793 3.35662 16.893 3.31801 16.8046C3.33946 16.8551 3.36091 16.9056 3.38236 16.9561C3.33517 16.8404 3.30299 16.7225 3.28369 16.6005C3.29227 16.6573 3.2987 16.712 3.30728 16.7688C3.28798 16.6299 3.29227 16.4889 3.29227 16.35V8.21227C3.29227 7.844 3.29012 7.47783 3.29227 7.10956C3.29227 7.03801 3.29656 6.96856 3.30728 6.89912C3.2987 6.95593 3.29227 7.01065 3.28369 7.06747C3.30299 6.94541 3.33517 6.82757 3.38236 6.71182C3.36091 6.76233 3.33946 6.81283 3.31801 6.86334C3.35447 6.77706 3.39737 6.69499 3.451 6.61712C3.46387 6.59818 3.47888 6.57924 3.49175 6.5603C3.52608 6.50559 3.37807 6.69078 3.451 6.61081C3.48317 6.57714 3.51321 6.54137 3.54538 6.5098C3.57756 6.47823 3.61402 6.44667 3.64834 6.4172C3.71484 6.36039 3.58399 6.46561 3.58399 6.46561C3.58399 6.45929 3.63333 6.43194 3.64191 6.42562C3.72556 6.37091 3.81351 6.32672 3.9036 6.28884C3.85212 6.30988 3.80064 6.33092 3.74916 6.35197C3.86714 6.30567 3.98726 6.2741 4.11167 6.25517C4.05375 6.26358 3.99798 6.2699 3.94007 6.27831C4.09022 6.25937 4.24252 6.26358 4.39482 6.26358H13.5756C13.9917 6.26358 14.41 6.26148 14.8261 6.26358C14.8991 6.26358 14.9699 6.26779 15.0406 6.27831C14.9827 6.2699 14.927 6.26358 14.869 6.25517C14.9934 6.2741 15.1136 6.30567 15.2315 6.35197C15.1801 6.33092 15.1286 6.30988 15.0771 6.28884C15.1651 6.32461 15.2487 6.3667 15.3281 6.41931C15.3474 6.43194 15.3667 6.44667 15.386 6.45929C15.4418 6.49296 15.253 6.34776 15.3345 6.41931C15.3688 6.45088 15.4053 6.48034 15.4375 6.5119C15.4696 6.54347 15.5018 6.57924 15.5319 6.61292C15.5898 6.67815 15.4825 6.54978 15.4825 6.54978C15.489 6.54978 15.5168 6.59818 15.5233 6.6066C15.579 6.68867 15.6241 6.77496 15.6627 6.86334C15.6413 6.81283 15.6198 6.76233 15.5983 6.71182C15.6455 6.82757 15.6777 6.94541 15.697 7.06747C15.6884 7.01065 15.682 6.95593 15.6734 6.89912C15.6906 7.03801 15.6884 7.17479 15.6884 7.31368V15.3736C15.6884 15.7629 15.6799 16.1543 15.6884 16.5436V16.5647ZM15.6884 16.5647C15.6884 16.8951 15.9845 17.2107 16.332 17.196C16.6816 17.1813 16.9755 16.9182 16.9755 16.5647V7.25476C16.9755 6.8423 16.909 6.44456 16.7009 6.07629C16.3255 5.40919 15.5833 5.00514 14.8111 5.00094C14.3285 4.99883 13.8459 5.00094 13.3632 5.00094H4.18889C3.54967 5.00094 2.91259 5.25767 2.50718 5.75221C2.18757 6.14153 2.00524 6.60239 2.00095 7.10535V16.1228C2.00095 16.268 1.99881 16.4132 2.00095 16.5563C2.0031 16.9266 2.09963 17.2949 2.28839 17.6169C2.54579 18.0546 2.95335 18.364 3.42955 18.5449C3.71698 18.6544 4.02372 18.667 4.32832 18.667H14.5966C14.8476 18.667 15.0878 18.6628 15.3367 18.606C16.2912 18.3913 16.9626 17.5096 16.9712 16.5626C16.9755 16.2322 16.673 15.9165 16.3277 15.9313C15.9802 15.9481 15.6906 16.2111 15.6884 16.5647Z" stroke="white" stroke-width="0.7"/>
<path d="M22.1816 6.19847C21.4994 6.47836 20.8173 6.75614 20.1352 7.03603C19.0562 7.47585 17.9794 7.91777 16.9005 8.3576C16.6538 8.45861 16.4071 8.55962 16.1626 8.65853C16.0274 8.71324 15.9202 8.76796 15.828 8.8858C15.7422 8.99523 15.6907 9.12571 15.6907 9.26881V14.4057C15.6907 14.5467 15.7422 14.6793 15.828 14.7887C15.9202 14.9065 16.021 14.957 16.1626 15.016C16.8447 15.2958 17.5268 15.5736 18.2089 15.8535C19.2879 16.2933 20.3647 16.7353 21.4437 17.1751C21.6903 17.2761 21.937 17.3771 22.1816 17.476C22.3639 17.5518 22.5977 17.4739 22.7436 17.3624C22.9023 17.2424 22.9967 17.0678 22.9967 16.8657V8.04193C22.9967 7.63578 23.0053 7.22963 22.9967 6.82348V6.80664C22.9967 6.47625 22.7007 6.16059 22.3532 6.17532C22.0035 6.19005 21.7097 6.4531 21.7097 6.80664V15.6304C21.7097 16.0366 21.6968 16.4449 21.7097 16.8489V16.8657C21.9821 16.6637 22.2523 16.4596 22.5248 16.2576C21.8426 15.9777 21.1605 15.6999 20.4784 15.42C19.3994 14.9802 18.3226 14.5383 17.2437 14.0984C16.997 13.9974 16.7503 13.8964 16.5058 13.7975C16.6624 13.9995 16.8211 14.2037 16.9777 14.4057V9.26881C16.8211 9.47083 16.6624 9.67496 16.5058 9.87698C17.1879 9.5971 17.87 9.31931 18.5522 9.03943C19.6311 8.5996 20.7079 8.15768 21.7869 7.71786C22.0336 7.61684 22.2802 7.51583 22.5248 7.41692C22.6856 7.35169 22.8165 7.28224 22.9087 7.12652C22.9902 6.99183 23.0246 6.79191 22.9731 6.6404C22.9237 6.48677 22.8272 6.33947 22.6771 6.26371C22.5355 6.18795 22.336 6.13323 22.1816 6.19847Z" fill="white" stroke="white" stroke-width="0.7"/>
<path d="M1 21L19 3" stroke="white" stroke-width="2" stroke-linecap="round"/>
</svg>
